PathFileType	4	(X/Y/Z)	0_1_34_p1_0-240.trc
DataRate	CameraRate	NumFrames	NumMarkers	Units	OrigDataRate	OrigDataStartFrame	OrigNumFrames
60	60	4	27	m	60	90	240
Frame#	Time	RHip			RKnee			RAnkle			RBigToe			RSmallToe			RHeel			LHip			LKnee			LAnkle			LBigToe			LSmallToe			LHeel			Neck			Head			Nose			RShoulder			RElbow			RWrist			RThumb			RIndex			RPinky			LShoulder			LElbow			LWrist			LThumb			LIndex			LPinky		
		X1	Y1	Z1	X2	Y2	Z2	X3	Y3	Z3	X4	Y4	Z4	X5	Y5	Z5	X6	Y6	Z6	X7	Y7	Z7	X8	Y8	Z8	X9	Y9	Z9	X10	Y10	Z10	X11	Y11	Z11	X12	Y12	Z12	X13	Y13	Z13	X14	Y14	Z14	X15	Y15	Z15	X16	Y16	Z16	X17	Y17	Z17	X18	Y18	Z18	X19	Y19	Z19	X20	Y20	Z20	X21	Y21	Z21	X22	Y22	Z22	X23	Y23	Z23	X24	Y24	Z24	X25	Y25	Z25	X26	Y26	Z26	X27	Y27	Z27
91	1.5166666666666666	0.14948788459608134	0.20147586604011053	-0.180745621122372	0.15716359355288498	0.001145263013278195	-0.43314963514847343	0.18069573005400422	0.21357822716237593	-0.8095217772766629	0.18523417610778878	0.05017557645595185	-0.802044467285338	0.12668398719682286	0.07520809769558655	-0.7979448002564161	0.20218062021182964	0.3022201326452601	-0.8876986729687033	0.34876240246595963	0.1963151973010049	-0.1566519998616339	0.3033640470397826	-0.017995002447311642	-0.42662743633149935	0.3200763554091041	0.18489527312681833	-0.7883432622509279	0.32427339130427185	0.043769283440603386	-0.7998139021049332	0.35978276094883294	0.07995047502547743	-0.8018077945462903	0.32296041834488726	0.29917233182419734	-0.8772893601762266	0.22178462642610122	0.06632489845646962	0.2757037082123903	0.1890322495070205	-0.00902320067813363	0.5492602454633992	0.19360056205415396	-0.07682030358657013	0.41403145279446435	0.07288791553503081	0.09366955438817141	0.222071391810005	0.025166325242028706	0.20913334936666747	-0.026713388813624627	0.028829180679174567	0.2640407602125932	-0.2515149760524655	0.07528604911373105	0.29753047508335023	-0.3665062466210913	0.04610648062103793	0.23932520020945175	-0.33948160508293795	0.03883124453769323	0.2432508933714207	-0.3504310087220954	0.3726284139592222	0.08928678813221314	0.2358185111577691	0.43626187109157305	0.1852963190539938	-0.002564888474271331	0.4815777670938581	0.3002274628886987	-0.25155985844330636	0.4517240028608765	0.24262607800555328	-0.30683550812427196	0.4716356553151667	0.2801644310530328	-0.33483024661409494	0.4903372974472908	0.29786604802057914	-0.3435657388113029
92	1.5333333333333334	0.1383034638245894	0.1750493348663017	-0.17733702139697521	0.15706072819292527	-0.00022036121596246563	-0.43624962921242727	0.18085715760379506	0.21364920203388532	-0.8098176801107946	0.18628566101367186	0.0498145166460992	-0.8066149905821223	0.12619679693187802	0.09295332035118281	-0.8156551505894801	0.2027175339856036	0.3048931477770875	-0.8843054871191579	0.3455990948899363	0.16915143743970049	-0.16483066682623743	0.30884321342491206	-0.0042773408358310425	-0.4316502853380757	0.3305721116799036	0.1969405313954149	-0.7976124106992177	0.3220738607970816	0.05709024795054343	-0.8147180298503799	0.3593805921004396	0.08108494438230913	-0.8076927837101705	0.3270469346049102	0.29511281263224887	-0.8776274615716451	0.21932384843530683	0.07845424584608804	0.28277508181467437	0.1978581445832408	0.013905539486038423	0.5506095180999602	0.19797037047400748	-0.06437447848153094	0.42395745510988564	0.0727594792735723	0.09404765765087515	0.22214339758266113	0.009392859020145517	0.1982415945072025	-0.037964261054409025	0.007684941387184169	0.17152629891641852	-0.23707925426581022	0.058961728320347656	0.18235497995866867	-0.35333014756325826	0.03893170159499663	0.18583501535812905	-0.3755886058055347	0.027334319620816686	0.19887853079983728	-0.36239796457636264	0.3801916107328457	0.08948765600550922	0.23556142850752046	0.4389725185192987	0.1680608724672534	-0.008808763880788743	0.4824439483173298	0.20478867467880082	-0.24596762447870577	0.44028647809855076	0.127499782891899	-0.2860307417115196	0.4594525857303078	0.1351165097460652	-0.33125775942092145	0.4926188795828165	0.20418363605978915	-0.3412563688187376
93	1.55	0.1370339456274111	0.17743586658033497	-0.16621651297183027	0.16024040185282495	-0.0023866041250578353	-0.43858757146564625	0.17563088818390246	0.1987177071100417	-0.7991333081016728	0.18391759154850637	0.04255177855043064	-0.7957127382673138	0.12755541543032417	0.056353160429588954	-0.78345224624319	0.19924755485454898	0.27190295806960624	-0.8657879001938416	0.33903524686415465	0.15733029595926828	-0.1587598647000541	0.32010239074793273	0.020434678449643726	-0.45738652843258304	0.3260501986275757	0.19932951420755893	-0.7988421628357718	0.32460764417021504	0.04414013892198925	-0.8008607597317235	0.36577141052621226	0.09223304351605699	-0.8126010447074828	0.32644723325215647	0.2963451686178737	-0.8783677067163878	0.21517276132411023	0.08230748227203227	0.28961402726342556	0.20219085776854534	0.024621847638207486	0.5484556477196499	0.1956452398253802	-0.053398125476338	0.4318331984811602	0.07243312707239918	0.09500306688429129	0.2263587432331286	0.0071622154603619885	0.17010025332967202	-0.04649470452594618	0.006018779679857474	0.16254173618269674	-0.27246548202716386	0.06255743419817045	0.11995190300045921	-0.3670067951265177	0.04412120674349634	0.13099560074104682	-0.3926723601625033	0.0034736352103261914	0.14859700837932965	-0.3783519064189121	0.3694452108924409	0.09210086164623738	0.24260754370228496	0.4402776533894652	0.1495595439413088	-0.025915125910749796	0.4529414425086037	0.13257990305877398	-0.23754933786536112	0.4355671777683523	0.098981003130989	-0.31915518215109034	0.4476013033954688	0.10531407681375646	-0.34180323051943634	0.49186198510745666	0.16976859427248678	-0.36999098646259665
94	1.5666666666666667	0.1359743608137399	0.1753463332626901	-0.1691072774392741	0.16005222460033697	-0.0027678677950719174	-0.43876024462389496	0.17541074683665345	0.1964768438587123	-0.8033327446924348	0.19186452773900461	0.029194463426183644	-0.7875285354853704	0.13797369998673525	0.03212200131928768	-0.7658254404265339	0.20483040693083013	0.28611857866354035	-0.8768106472064623	0.3390035692228171	0.15483711999278543	-0.15819366126080794	0.31288869187207874	0.020292764453164802	-0.4564160681553119	0.32003512667213635	0.2061235945172109	-0.8085612227202901	0.3247186065817474	0.02770761097159288	-0.7929844504502266	0.35471939599615937	0.06225606883446582	-0.8011320293885853	0.32464436631642724	0.3077161095254206	-0.8837517564848841	0.21503050182164873	0.08267728153067956	0.29710434955741993	0.2030249246829298	0.026400229995947197	0.5616686010897636	0.19155856745304445	-0.05092141584226881	0.4388189945779403	0.06960102522521418	0.10679372071170479	0.2261733995074522	0.011333778481285972	0.16193972234942255	-0.06393903751809239	0.0052980497354104695	0.13227852941867144	-0.2875048862920656	0.06307857719434823	0.03978203524630069	-0.34132337183897105	0.052866610879748845	0.034085493371268004	-0.35688020370225837	0.019504308207944746	0.09050036421137793	-0.3790241758923603	0.3693914297624051	0.092107552550901	0.2428402429733807	0.43519034403556023	0.13596912398550778	-0.023935232603863446	0.4536010336322318	0.10180804709439205	-0.24140664370635284	0.4371971754888592	0.08077491181401245	-0.3352223601228187	0.44287889440635575	0.06112003253708596	-0.35906034191971	0.47731065043704357	0.063930048136386	-0.34583009677862053
